<svg xmlns="http://www.w3.org/2000/svg" viewBox="0 0 164.5 71.35"><defs><style>.cls-1{fill:#0054a6;}.cls-2{fill:#333;}</style></defs><g id="Layer_2" data-name="Layer 2"><g id="Layer_1-2" data-name="Layer 1"><path class="cls-1" d="M21.69,50a25.21,25.21,0,0,1-9.6-1.71,15.62,15.62,0,0,1-6.78-5.12,14,14,0,0,1-2.68-8.26H15.29a6.14,6.14,0,0,0,1.88,4.14,6,6,0,0,0,4.17,1.43,6.58,6.58,0,0,0,4.18-1.21,4.1,4.1,0,0,0,1.53-3.38,4,4,0,0,0-1.23-3,9.71,9.71,0,0,0-3-1.95,50,50,0,0,0-5-1.74,56.15,56.15,0,0,1-7.72-2.92A14.32,14.32,0,0,1,5,22,12.06,12.06,0,0,1,2.8,14.54,12.78,12.78,0,0,1,7.73,3.86Q12.67,0,20.58,0q8.07,0,13,3.86a13.88,13.88,0,0,1,5.3,10.75H26a5,5,0,0,0-1.71-3.72,6.09,6.09,0,0,0-4.1-1.36,5.11,5.11,0,0,0-3.48,1.14A4.14,4.14,0,0,0,15.37,14a4.12,4.12,0,0,0,2.21,3.66,37.25,37.25,0,0,0,7,2.84,66.89,66.89,0,0,1,7.69,3.06,14.65,14.65,0,0,1,5.12,4.26A11.32,11.32,0,0,1,39.51,35a14.07,14.07,0,0,1-2.12,7.58A15,15,0,0,1,31.23,48,20.94,20.94,0,0,1,21.69,50Z"/><path class="cls-1" d="M58.7.69V49.52H46.8V.69Z"/><path class="cls-1" d="M97.73,40.9H79.51l-2.93,8.62H64.13L81.77.69H95.55l17.72,48.83H100.65Zm-3.07-9.18-6-17.88-6,17.88Z"/><path class="cls-1" d="M149,40.9H130.78l-2.93,8.62H115.39L133,.69h13.81L164.5,49.52H151.92Zm-3.06-9.18-6.05-17.88-6,17.88Z"/><path class="cls-2" d="M6.26,71.15H4.55v-13H0V56.7H10.76v1.48H6.26Z"/><path class="cls-2" d="M22.4,71.15h-8V56.7h8v1.48H16v4.68h6v1.46H16v5.34H22.4Z"/><path class="cls-2" d="M33.2,58a5.33,5.33,0,0,0-2.16.42,4.4,4.4,0,0,0-1.62,1.18,5.42,5.42,0,0,0-1,1.87A7.94,7.94,0,0,0,28,63.91a8.39,8.39,0,0,0,.57,3.17,4.59,4.59,0,0,0,1.71,2.06,5.11,5.11,0,0,0,2.85.73A10.09,10.09,0,0,0,35,69.71a16.26,16.26,0,0,0,1.67-.41v1.46A8.74,8.74,0,0,1,35,71.2a12.89,12.89,0,0,1-2.06.14,6.78,6.78,0,0,1-3.68-.91A5.66,5.66,0,0,1,27,67.84a9.82,9.82,0,0,1-.73-3.94,9.58,9.58,0,0,1,.45-3,6.9,6.9,0,0,1,1.35-2.35A6,6,0,0,1,30.28,57a7.5,7.5,0,0,1,3-.57,10,10,0,0,1,2.11.22,7.39,7.39,0,0,1,1.84.62l-.67,1.42A10,10,0,0,0,35,58.15,6.72,6.72,0,0,0,33.2,58Z"/><path class="cls-2" d="M52.13,71.15H50.42V64.32H42.86v6.83H41.15V56.7h1.71v6.16h7.59V56.7h1.71Z"/><path class="cls-2" d="M68.81,71.15H66.88L59,59h-.08c0,.32,0,.69.07,1.13s0,.85.06,1.32,0,.93,0,1.41v8.27H57.52V56.7h1.92l7.85,12.09h.07c0-.22,0-.57,0-1s0-.88-.06-1.37,0-1,0-1.37V56.7h1.58Z"/><path class="cls-2" d="M86.7,63.9a10.39,10.39,0,0,1-.43,3A6.59,6.59,0,0,1,85,69.3a5.51,5.51,0,0,1-2.06,1.51,7.1,7.1,0,0,1-2.84.53,7.2,7.2,0,0,1-2.94-.53,5.57,5.57,0,0,1-2.07-1.52,6.69,6.69,0,0,1-1.24-2.36,10.83,10.83,0,0,1-.4-3.05A9.56,9.56,0,0,1,74.18,60a5.71,5.71,0,0,1,2.21-2.6,7,7,0,0,1,3.74-.93,6.73,6.73,0,0,1,3.61.92A5.77,5.77,0,0,1,86,60,9.28,9.28,0,0,1,86.7,63.9Zm-11.51,0a8.87,8.87,0,0,0,.53,3.19,4.25,4.25,0,0,0,1.6,2.07,5.54,5.54,0,0,0,5.5,0,4.23,4.23,0,0,0,1.59-2.07,8.86,8.86,0,0,0,.52-3.19,7.2,7.2,0,0,0-1.18-4.37A4.24,4.24,0,0,0,80.1,58a4.89,4.89,0,0,0-2.76.72,4.33,4.33,0,0,0-1.62,2.06A8.59,8.59,0,0,0,75.19,63.9Z"/><path class="cls-2" d="M91.32,71.15V56.7H93V69.64h6.42v1.51Z"/><path class="cls-2" d="M115.83,63.9a10.38,10.38,0,0,1-.42,3,6.59,6.59,0,0,1-1.27,2.36,5.59,5.59,0,0,1-2.06,1.51,8.14,8.14,0,0,1-5.78,0,5.32,5.32,0,0,1-2.08-1.52A6.83,6.83,0,0,1,103,66.93a10.49,10.49,0,0,1-.41-3.05,9.56,9.56,0,0,1,.73-3.88,5.77,5.77,0,0,1,2.21-2.6,7,7,0,0,1,3.74-.93,6.73,6.73,0,0,1,3.61.92A5.77,5.77,0,0,1,115.09,60,9.28,9.28,0,0,1,115.83,63.9Zm-11.5,0a8.65,8.65,0,0,0,.52,3.19,4.4,4.4,0,0,0,1.59,2.07,5.56,5.56,0,0,0,5.51,0,4.27,4.27,0,0,0,1.58-2.07,8.86,8.86,0,0,0,.52-3.19,7.14,7.14,0,0,0-1.18-4.37A4.24,4.24,0,0,0,109.22,58a4.89,4.89,0,0,0-2.76.72,4.34,4.34,0,0,0-1.62,2.06,8.57,8.57,0,0,0-.51,3.17Z"/><path class="cls-2" d="M126.63,63.57h5.05v7a13.54,13.54,0,0,1-2.34.57,18.48,18.48,0,0,1-2.68.19,7.48,7.48,0,0,1-3.8-.9,5.76,5.76,0,0,1-2.35-2.56,9.13,9.13,0,0,1-.79-4,8.17,8.17,0,0,1,.87-3.91,6.26,6.26,0,0,1,2.56-2.59,8.07,8.07,0,0,1,4-.92,10.88,10.88,0,0,1,2.28.22,10.64,10.64,0,0,1,2,.62l-.63,1.47a11.39,11.39,0,0,0-1.77-.57,7.87,7.87,0,0,0-2-.25,5.91,5.91,0,0,0-3,.73,4.77,4.77,0,0,0-1.93,2.07,7,7,0,0,0-.66,3.16,7.75,7.75,0,0,0,.57,3.15,4.49,4.49,0,0,0,1.82,2.08,6.16,6.16,0,0,0,3.18.74,10.91,10.91,0,0,0,1.71-.11A11.07,11.07,0,0,0,130,69.5V65.07h-3.37Z"/><path class="cls-2" d="M136.61,71.15V56.7h1.71V71.15Z"/><path class="cls-2" d="M151.69,71.15h-8V56.7h8v1.48h-6.36v4.68h6v1.46h-6v5.34h6.36Z"/><path class="cls-2" d="M164.46,67.3a3.7,3.7,0,0,1-.64,2.19A4,4,0,0,1,162,70.87a7.12,7.12,0,0,1-2.7.47,13.41,13.41,0,0,1-1.55-.08,12.07,12.07,0,0,1-1.34-.22,6,6,0,0,1-1.08-.37V69.06a14.09,14.09,0,0,0,1.81.57,9.85,9.85,0,0,0,2.23.26,5.45,5.45,0,0,0,1.84-.29,2.44,2.44,0,0,0,1.14-.84,2.49,2.49,0,0,0,.07-2.56,2.91,2.91,0,0,0-1.09-.91,15,15,0,0,0-2.06-.88,11.06,11.06,0,0,1-1.62-.71,5.38,5.38,0,0,1-1.18-.89,3.28,3.28,0,0,1-.71-1.14,4.19,4.19,0,0,1-.24-1.49,3.22,3.22,0,0,1,.57-2,3.7,3.7,0,0,1,1.63-1.27,6,6,0,0,1,2.4-.44,9.6,9.6,0,0,1,2.14.22,10.52,10.52,0,0,1,1.81.56l-.53,1.45a11.6,11.6,0,0,0-1.66-.57,7.78,7.78,0,0,0-1.8-.22,4,4,0,0,0-1.57.28,2.26,2.26,0,0,0-1,.76,2,2,0,0,0-.33,1.18,2.32,2.32,0,0,0,.31,1.26,2.87,2.87,0,0,0,1,.9,13,13,0,0,0,1.88.81,14.06,14.06,0,0,1,2.16,1A3.82,3.82,0,0,1,164,65.38,3.6,3.6,0,0,1,164.46,67.3Z"/></g></g></svg>